<svg version="1.1" id="Layer_1" xmlns="http://www.w3.org/2000/svg" xmlns:xlink="http://www.w3.org/1999/xlink" x="0px" y="0px"
	 width="100%" viewBox="0 0 382 86" enable-background="new 0 0 382 86" xml:space="preserve">
<path fill="#FEFEFE" opacity="1.000000" stroke="none" 
	d="
M279.000000,87.000000 
	C186.000015,87.000000 93.500023,87.000000 1.000025,87.000000 
	C1.000017,58.333347 1.000017,29.666697 1.000008,1.000033 
	C128.333298,1.000022 255.666611,1.000022 382.999939,1.000011 
	C382.999939,29.666634 382.999939,58.333267 382.999969,86.999954 
	C348.500000,87.000000 314.000000,87.000000 279.000000,87.000000 
M105.207352,63.327087 
	C106.790100,63.994488 108.372841,64.661888 109.955589,65.329285 
	C110.398277,63.673367 111.211639,62.020428 111.224976,60.361057 
	C111.330780,47.195797 111.350395,34.028698 111.227165,20.863750 
	C111.203552,18.340212 110.434166,15.823652 110.008842,13.303872 
	C107.725838,14.341960 105.442841,15.380048 102.692741,16.630526 
	C99.418671,11.608302 95.433601,12.386615 91.577309,17.650171 
	C87.605873,10.960547 83.791740,13.256566 80.275383,17.046114 
	C79.551201,16.519798 79.184586,16.164873 78.748611,15.951946 
	C76.949615,15.073335 75.129601,14.237780 73.317307,13.386395 
	C72.875603,15.232155 72.065117,17.075085 72.050926,18.924126 
	C71.943520,32.922707 71.947556,46.922840 72.058861,60.921360 
	C72.070457,62.380604 73.006287,63.832497 73.513298,65.287796 
	C74.974670,64.767128 76.480629,64.342262 77.881035,63.690571 
	C78.748985,63.286659 79.456688,62.538395 80.188591,61.981060 
	C85.653816,66.073097 85.653816,66.073097 92.354439,62.065487 
	C95.459076,66.210442 98.885147,66.702278 102.564087,62.570644 
	C102.815788,62.287971 103.926414,62.770107 105.207352,63.327087 
M288.287933,34.084915 
	C288.287933,42.989422 288.287933,51.893929 288.287933,61.095600 
	C290.343628,60.991192 291.756744,60.919418 293.591248,60.826244 
	C293.591248,57.447163 293.591248,54.377190 293.591248,51.096813 
	C299.840759,54.273865 303.887024,53.773952 306.721619,49.751854 
	C310.013367,45.081070 309.434723,36.470974 305.259644,33.245686 
	C303.686493,32.030426 301.367706,31.307446 299.360291,31.242596 
	C296.617432,31.153996 293.917175,34.338448 290.970428,31.356087 
	C290.841858,31.225948 289.224121,32.567123 288.287933,34.084915 
M265.265533,50.911327 
	C265.847107,49.364029 266.428711,47.816730 267.061218,46.133904 
	C270.614838,46.133904 274.069489,46.133904 277.634399,46.133904 
	C279.368256,49.417374 279.049713,55.297405 285.667511,52.479774 
	C282.639526,43.942841 279.714539,35.286846 276.396118,26.784384 
	C275.901581,25.517231 273.582581,24.346062 272.060822,24.284349 
	C270.766510,24.231861 268.648102,25.557957 268.194275,26.763498 
	C264.982697,35.294823 262.106354,43.952358 258.762909,53.610176 
	C261.346893,52.828274 263.194122,52.269299 265.265533,50.911327 
M327.440948,52.390324 
	C332.747925,48.234802 334.131042,39.800064 330.350220,34.647892 
	C327.239380,30.408611 323.205322,30.166689 318.770477,32.943787 
	C316.017395,32.084194 314.342896,31.561359 312.073669,30.852844 
	C312.073669,36.808502 312.073700,41.615616 312.073700,46.422729 
	C312.073700,51.200710 312.073669,55.978691 312.073669,60.804863 
	C314.013458,60.804863 315.419281,60.804863 317.163696,60.804863 
	C317.163696,57.328629 317.163696,54.105217 317.163696,51.810116 
	C320.554077,52.160599 323.653748,52.481030 327.440948,52.390324 
M158.388885,33.116726 
	C154.494461,29.918865 150.802628,30.623209 148.031570,33.113724 
	C145.781296,32.302914 144.037460,31.674582 141.989761,30.936766 
	C141.989761,38.996975 141.989761,45.889961 141.989761,53.052433 
	C143.715118,52.943932 145.121750,52.855473 146.827499,52.748203 
	C146.827499,49.125046 146.846542,45.821407 146.822159,42.518085 
	C146.797699,39.205376 146.890778,35.664444 151.319305,35.677013 
	C156.031219,35.690380 155.366501,39.628410 155.468369,42.688660 
	C155.578293,45.991016 155.493225,49.299866 155.493225,53.049061 
	C157.410049,52.934105 158.933273,52.842754 161.500595,52.688789 
	C160.589645,46.001102 159.752090,39.852234 158.388885,33.116726 
M257.733643,43.609562 
	C258.073883,43.289803 258.687531,42.990978 258.713867,42.647182 
	C259.203461,36.251617 255.136581,31.378454 249.142303,31.093475 
	C243.599625,30.829967 239.307281,34.963837 238.878647,40.978218 
	C238.365280,48.181606 241.837250,52.916969 248.061249,53.238922 
	C252.324417,53.459454 256.202667,52.700390 258.612305,46.545696 
	C255.811523,47.337212 254.028076,47.543221 252.540634,48.317734 
	C248.165024,50.596134 245.025238,49.009529 244.458878,43.699375 
	C248.618286,43.699375 252.743881,43.699375 257.733643,43.609562 
M205.017166,40.807522 
	C203.417358,33.272404 198.535751,29.723520 192.109055,31.423462 
	C186.521057,32.901554 183.669724,38.094734 184.782562,44.767372 
	C185.737274,50.491917 189.765991,53.653355 195.635254,53.283806 
	C201.690765,52.902538 204.716354,49.165127 205.017166,40.807522 
M227.418442,35.228798 
	C230.148788,36.417500 232.879135,37.606201 235.609497,38.794899 
	C234.033234,32.259235 229.462601,29.996330 224.298096,31.527599 
	C219.118240,33.063419 216.288254,38.004959 217.068909,44.150772 
	C217.799881,49.905579 221.853317,53.464684 227.526031,53.332611 
	C232.657822,53.213139 235.268280,51.029129 235.924683,45.245960 
	C233.825836,46.249184 232.115677,46.755497 230.787292,47.764477 
	C227.753357,50.068928 224.659653,49.541733 223.014633,46.187370 
	C220.999878,42.079147 222.398331,37.794426 227.418442,35.228798 
M164.944443,38.688488 
	C166.445038,42.725830 167.809601,46.822968 169.539597,50.759502 
	C169.985703,51.774658 171.576981,52.872395 172.648407,52.878704 
	C173.989105,52.886593 176.138062,52.138908 176.550125,51.143059 
	C179.185837,44.773331 181.440414,38.245903 183.819839,31.771763 
	C180.009857,30.417648 178.181091,31.566305 177.286850,35.095695 
	C176.283295,39.056561 174.812897,42.899143 173.214066,47.811920 
	C171.583771,42.941845 170.065399,38.980278 168.952667,34.907875 
	C167.991806,31.391363 166.130676,30.425177 162.474060,31.866802 
	C163.249130,33.971001 163.984085,35.966293 164.944443,38.688488 
M131.944641,26.808315 
	C131.944641,35.403381 131.944641,43.998447 131.944641,52.646984 
	C133.860733,52.646984 135.368454,52.646984 136.814178,52.646984 
	C136.814178,43.047371 136.814178,33.800285 136.814178,23.305855 
	C134.813034,24.363667 133.384735,25.118666 131.944641,26.808315 
M208.278549,38.637989 
	C208.278549,43.363869 208.278549,48.089748 208.278549,53.119350 
	C210.433975,52.963741 211.837997,52.862377 213.240906,52.761097 
	C213.240906,45.496216 213.240906,38.578945 213.240906,31.537300 
	C211.570023,31.537300 210.166260,31.537300 208.278610,31.537300 
	C208.278610,33.780842 208.278610,35.734974 208.278549,38.637989 
M210.566177,28.189478 
	C211.565689,26.952759 212.565201,25.716042 213.564697,24.479321 
	C212.157974,24.094219 210.306915,22.955301 209.431366,23.471371 
	C207.186737,24.794430 207.577271,26.647898 210.566177,28.189478 
z"/>
<path fill="#2A2A2A" opacity="1.000000" stroke="none" 
	d="
M104.922470,63.111824 
	C103.926414,62.770107 102.815788,62.287971 102.564087,62.570644 
	C98.885147,66.702278 95.459076,66.210442 92.354439,62.065487 
	C85.653816,66.073097 85.653816,66.073097 80.188591,61.981060 
	C79.456688,62.538395 78.748985,63.286659 77.881035,63.690571 
	C76.480629,64.342262 74.974670,64.767128 73.513298,65.287796 
	C73.006287,63.832497 72.070457,62.380604 72.058861,60.921360 
	C71.947556,46.922840 71.943520,32.922707 72.050926,18.924126 
	C72.065117,17.075085 72.875603,15.232155 73.317307,13.386396 
	C75.129601,14.237780 76.949615,15.073335 78.748611,15.951946 
	C79.184586,16.164873 79.551201,16.519798 80.275383,17.046114 
	C83.791740,13.256566 87.605873,10.960547 91.577309,17.650171 
	C95.433601,12.386615 99.418671,11.608302 102.692741,16.630526 
	C105.442841,15.380048 107.725838,14.341960 110.008835,13.303873 
	C110.434166,15.823652 111.203552,18.340212 111.227165,20.863750 
	C111.350395,34.028698 111.330780,47.195797 111.224976,60.361057 
	C111.211639,62.020428 110.398277,63.673367 109.955589,65.329285 
	C108.372841,64.661888 106.790100,63.994488 104.922470,63.111824 
M87.530968,27.843506 
	C85.098305,28.009621 82.665642,28.175737 78.880539,28.434204 
	C83.631577,31.919779 99.985283,31.909668 103.246140,28.013599 
	C98.338860,27.956898 93.431572,27.900194 87.530968,27.843506 
M100.215469,40.992779 
	C101.163246,40.415295 102.111015,39.837814 103.058792,39.260330 
	C102.299667,38.793594 101.546837,37.934483 100.780411,37.922180 
	C94.631577,37.823441 88.479195,37.836620 82.330864,37.961426 
	C81.614494,37.975967 80.916153,38.878361 80.209450,39.369144 
	C80.255234,39.910580 80.301025,40.452019 80.346809,40.993454 
	C86.653038,40.993454 92.959274,40.993454 100.215469,40.992779 
M92.480080,47.839554 
	C88.419456,47.953434 84.358833,48.067314 80.298218,48.181194 
	C84.302345,52.076916 100.956253,51.637394 103.654892,47.839542 
	C99.811226,47.839542 96.636429,47.839542 92.480080,47.839554 
z"/>
<path fill="#373737" opacity="1.000000" stroke="none" 
	d="
M288.294006,33.653923 
	C289.224121,32.567123 290.841858,31.225948 290.970428,31.356087 
	C293.917175,34.338448 296.617432,31.153996 299.360291,31.242596 
	C301.367706,31.307446 303.686493,32.030426 305.259644,33.245686 
	C309.434723,36.470974 310.013367,45.081070 306.721619,49.751854 
	C303.887024,53.773952 299.840759,54.273865 293.591248,51.096813 
	C293.591248,54.377190 293.591248,57.447163 293.591248,60.826244 
	C291.756744,60.919418 290.343628,60.991192 288.287933,61.095600 
	C288.287933,51.893929 288.287933,42.989422 288.294006,33.653923 
M302.879791,45.827713 
	C302.965149,43.868027 303.717316,41.585823 302.965363,40.031090 
	C302.045715,38.129642 299.865112,36.838058 298.229736,35.282764 
	C296.759613,36.832870 294.145874,38.330612 294.071960,39.944656 
	C293.942474,42.772972 295.370880,45.672626 296.146606,48.542404 
	C298.256500,47.885883 300.366394,47.229362 302.879791,45.827713 
z"/>
<path fill="#2F2F2F" opacity="1.000000" stroke="none" 
	d="
M265.153442,51.310825 
	C263.194122,52.269299 261.346893,52.828274 258.762909,53.610176 
	C262.106354,43.952358 264.982697,35.294823 268.194275,26.763498 
	C268.648102,25.557957 270.766510,24.231861 272.060822,24.284349 
	C273.582581,24.346062 275.901581,25.517231 276.396118,26.784384 
	C279.714539,35.286846 282.639526,43.942841 285.667511,52.479774 
	C279.049713,55.297405 279.368256,49.417374 277.634399,46.133904 
	C274.069489,46.133904 270.614838,46.133904 267.061218,46.133904 
	C266.428711,47.816730 265.847107,49.364029 265.153442,51.310825 
M271.141724,32.053261 
	C270.343536,35.147301 269.545349,38.241337 268.707733,41.488068 
	C271.440430,41.488068 273.615601,41.488068 276.140503,41.488068 
	C274.882660,37.265331 273.748138,33.456520 272.495422,29.250971 
	C271.974731,30.213617 271.667480,30.781610 271.141724,32.053261 
z"/>
<path fill="#303030" opacity="1.000000" stroke="none" 
	d="
M327.097168,52.595890 
	C323.653748,52.481030 320.554077,52.160599 317.163696,51.810116 
	C317.163696,54.105217 317.163696,57.328629 317.163696,60.804863 
	C315.419281,60.804863 314.013458,60.804863 312.073669,60.804863 
	C312.073669,55.978691 312.073700,51.200710 312.073700,46.422729 
	C312.073700,41.615616 312.073669,36.808502 312.073669,30.852844 
	C314.342896,31.561359 316.017395,32.084194 318.770477,32.943787 
	C323.205322,30.166689 327.239380,30.408611 330.350220,34.647892 
	C334.131042,39.800064 332.747925,48.234802 327.097168,52.595890 
M325.341461,47.825966 
	C325.859222,44.988613 327.004272,42.090424 326.736450,39.329273 
	C326.399536,35.855747 322.537415,34.125916 320.024017,35.968002 
	C316.745056,38.371185 316.548889,41.872700 317.753418,45.414890 
	C318.923828,48.856796 321.278137,50.105713 325.341461,47.825966 
z"/>
<path fill="#353535" opacity="1.000000" stroke="none" 
	d="
M158.651703,33.410046 
	C159.752090,39.852234 160.589645,46.001102 161.500595,52.688789 
	C158.933273,52.842754 157.410049,52.934105 155.493225,53.049061 
	C155.493225,49.299866 155.578293,45.991016 155.468369,42.688660 
	C155.366501,39.628410 156.031219,35.690380 151.319305,35.677013 
	C146.890778,35.664444 146.797699,39.205376 146.822159,42.518085 
	C146.846542,45.821407 146.827499,49.125046 146.827499,52.748203 
	C145.121750,52.855473 143.715118,52.943932 141.989761,53.052433 
	C141.989761,45.889961 141.989761,38.996975 141.989761,30.936766 
	C144.037460,31.674582 145.781296,32.302914 148.031570,33.113724 
	C150.802628,30.623209 154.494461,29.918865 158.651703,33.410046 
z"/>
<path fill="#353535" opacity="1.000000" stroke="none" 
	d="
M257.301575,43.654469 
	C252.743881,43.699375 248.618286,43.699375 244.458878,43.699375 
	C245.025238,49.009529 248.165024,50.596134 252.540634,48.317734 
	C254.028076,47.543221 255.811523,47.337212 258.612305,46.545696 
	C256.202667,52.700390 252.324417,53.459454 248.061249,53.238922 
	C241.837250,52.916969 238.365280,48.181606 238.878647,40.978218 
	C239.307281,34.963837 243.599625,30.829967 249.142303,31.093475 
	C255.136581,31.378454 259.203461,36.251617 258.713867,42.647182 
	C258.687531,42.990978 258.073883,43.289803 257.301575,43.654469 
M245.770721,36.344814 
	C245.137390,37.382851 244.504074,38.420891 243.479660,40.099949 
	C245.765396,40.099949 247.213882,40.138245 248.659424,40.089512 
	C250.200394,40.037560 251.738602,39.903316 253.699997,39.778049 
	C252.272156,35.541065 250.049652,34.304123 245.770721,36.344814 
z"/>
<path fill="#313131" opacity="1.000000" stroke="none" 
	d="
M205.036652,41.227013 
	C204.716354,49.165127 201.690765,52.902538 195.635254,53.283806 
	C189.765991,53.653355 185.737274,50.491917 184.782562,44.767372 
	C183.669724,38.094734 186.521057,32.901554 192.109055,31.423462 
	C198.535751,29.723520 203.417358,33.272404 205.036652,41.227013 
M195.292984,35.231606 
	C190.418945,36.587502 188.229370,40.666946 190.288315,45.495632 
	C190.943710,47.032719 193.056259,48.970444 194.431549,48.916836 
	C196.105637,48.851589 198.545609,47.216110 199.172409,45.662132 
	C200.762787,41.719227 200.462021,37.782043 195.292984,35.231606 
z"/>
<path fill="#323232" opacity="1.000000" stroke="none" 
	d="
M226.992767,35.265884 
	C222.398331,37.794426 220.999878,42.079147 223.014633,46.187370 
	C224.659653,49.541733 227.753357,50.068928 230.787292,47.764477 
	C232.115677,46.755497 233.825836,46.249184 235.924683,45.245960 
	C235.268280,51.029129 232.657822,53.213139 227.526031,53.332611 
	C221.853317,53.464684 217.799881,49.905579 217.068909,44.150772 
	C216.288254,38.004959 219.118240,33.063419 224.298096,31.527599 
	C229.462601,29.996330 234.033234,32.259235 235.609497,38.794899 
	C232.879135,37.606201 230.148788,36.417500 226.992767,35.265884 
z"/>
<path fill="#333333" opacity="1.000000" stroke="none" 
	d="
M164.831757,38.325035 
	C163.984085,35.966293 163.249130,33.971001 162.474060,31.866802 
	C166.130676,30.425177 167.991806,31.391363 168.952667,34.907875 
	C170.065399,38.980278 171.583771,42.941845 173.214066,47.811920 
	C174.812897,42.899143 176.283295,39.056561 177.286850,35.095695 
	C178.181091,31.566305 180.009857,30.417648 183.819839,31.771763 
	C181.440414,38.245903 179.185837,44.773331 176.550125,51.143059 
	C176.138062,52.138908 173.989105,52.886593 172.648407,52.878704 
	C171.576981,52.872395 169.985703,51.774658 169.539597,50.759502 
	C167.809601,46.822968 166.445038,42.725830 164.831757,38.325035 
z"/>
<path fill="#272727" opacity="1.000000" stroke="none" 
	d="
M131.950531,26.340992 
	C133.384735,25.118666 134.813034,24.363667 136.814178,23.305855 
	C136.814178,33.800285 136.814178,43.047371 136.814178,52.646984 
	C135.368454,52.646984 133.860733,52.646984 131.944641,52.646984 
	C131.944641,43.998447 131.944641,35.403381 131.950531,26.340992 
z"/>
<path fill="#3B3B3B" opacity="1.000000" stroke="none" 
	d="
M208.278580,38.163551 
	C208.278610,35.734974 208.278610,33.780842 208.278610,31.537300 
	C210.166260,31.537300 211.570023,31.537300 213.240906,31.537300 
	C213.240906,38.578945 213.240906,45.496216 213.240906,52.761097 
	C211.837997,52.862377 210.433975,52.963741 208.278549,53.119350 
	C208.278549,48.089748 208.278549,43.363869 208.278580,38.163551 
z"/>
<path fill="#3B3B3B" opacity="1.000000" stroke="none" 
	d="
M210.174088,28.105869 
	C207.577271,26.647898 207.186737,24.794430 209.431366,23.471371 
	C210.306915,22.955301 212.157974,24.094219 213.564697,24.479322 
	C212.565201,25.716042 211.565689,26.952759 210.174088,28.105869 
z"/>
<path fill="#FDFDFD" opacity="1.000000" stroke="none" 
	d="
M88.027634,27.843498 
	C93.431572,27.900194 98.338860,27.956898 103.246140,28.013599 
	C99.985283,31.909668 83.631577,31.919779 78.880539,28.434204 
	C82.665642,28.175737 85.098305,28.009621 88.027634,27.843498 
z"/>
<path fill="#FDFDFD" opacity="1.000000" stroke="none" 
	d="
M99.740486,40.993118 
	C92.959274,40.993454 86.653038,40.993454 80.346809,40.993454 
	C80.301025,40.452019 80.255234,39.910580 80.209450,39.369144 
	C80.916153,38.878361 81.614494,37.975967 82.330864,37.961426 
	C88.479195,37.836620 94.631577,37.823441 100.780411,37.922180 
	C101.546837,37.934483 102.299667,38.793594 103.058792,39.260330 
	C102.111015,39.837814 101.163246,40.415295 99.740486,40.993118 
z"/>
<path fill="#FCFCFC" opacity="1.000000" stroke="none" 
	d="
M92.970856,47.839546 
	C96.636429,47.839542 99.811226,47.839542 103.654892,47.839542 
	C100.956253,51.637394 84.302345,52.076916 80.298218,48.181194 
	C84.358833,48.067314 88.419456,47.953434 92.970856,47.839546 
z"/>
<path fill="#F6F6F6" opacity="1.000000" stroke="none" 
	d="
M302.678040,46.200279 
	C300.366394,47.229362 298.256500,47.885883 296.146606,48.542400 
	C295.370880,45.672626 293.942474,42.772972 294.071960,39.944656 
	C294.145874,38.330612 296.759613,36.832870 298.229736,35.282761 
	C299.865112,36.838058 302.045715,38.129642 302.965363,40.031090 
	C303.717316,41.585823 302.965149,43.868027 302.678040,46.200279 
z"/>
<path fill="#EAEAEA" opacity="1.000000" stroke="none" 
	d="
M271.250977,31.701433 
	C271.667480,30.781610 271.974731,30.213617 272.495422,29.250971 
	C273.748138,33.456520 274.882660,37.265331 276.140503,41.488068 
	C273.615601,41.488068 271.440430,41.488068 268.707733,41.488068 
	C269.545349,38.241337 270.343536,35.147301 271.250977,31.701433 
z"/>
<path fill="#F6F6F6" opacity="1.000000" stroke="none" 
	d="
M325.053223,48.113686 
	C321.278137,50.105713 318.923828,48.856796 317.753418,45.414890 
	C316.548889,41.872700 316.745056,38.371185 320.024017,35.968002 
	C322.537415,34.125916 326.399536,35.855747 326.736450,39.329273 
	C327.004272,42.090424 325.859222,44.988613 325.053223,48.113686 
z"/>
<path fill="#F3F3F3" opacity="1.000000" stroke="none" 
	d="
M246.091614,36.122002 
	C250.049652,34.304123 252.272156,35.541065 253.699997,39.778049 
	C251.738602,39.903316 250.200394,40.037560 248.659424,40.089512 
	C247.213882,40.138245 245.765396,40.099949 243.479660,40.099949 
	C244.504074,38.420891 245.137390,37.382851 246.091614,36.122002 
z"/>
<path fill="#F7F7F7" opacity="1.000000" stroke="none" 
	d="
M195.667664,35.314659 
	C200.462021,37.782043 200.762787,41.719227 199.172409,45.662132 
	C198.545609,47.216110 196.105637,48.851589 194.431549,48.916836 
	C193.056259,48.970444 190.943710,47.032719 190.288315,45.495632 
	C188.229370,40.666946 190.418945,36.587502 195.667664,35.314659 
z"/>
</svg>